<?xml version="1.0" encoding="UTF-8"?> <svg xmlns="http://www.w3.org/2000/svg" id="Warstwa_1" data-name="Warstwa 1" viewBox="0 0 155 155"><defs><style>.cls-1,.cls-2{fill:none;stroke:#e14e26;}.cls-1{stroke-miterlimit:10;stroke-width:3px;}.cls-2{stroke-miterlimit:10;stroke-width:3px;}</style></defs><g id="_3" data-name=" 3"><g id="Group_47093" data-name="Group 47093"><rect id="Rectangle_7476" data-name="Rectangle 7476" class="cls-1" x="15.33" y="48.01" width="41.39" height="18.44" transform="translate(-29.92 42.24) rotate(-45)"></rect><circle id="Ellipse_759" data-name="Ellipse 759" class="cls-2" cx="42.27" cy="50.99" r="4.22"></circle><rect id="Rectangle_7477" data-name="Rectangle 7477" class="cls-1" x="109.76" y="37.36" width="18.44" height="41.39" transform="translate(-6.2 101.13) rotate(-45)"></rect><circle id="Ellipse_760" data-name="Ellipse 760" class="cls-2" cx="112.74" cy="51.82" r="4.22"></circle><path id="Path_46213" data-name="Path 46213" class="cls-2" d="M90.09,85.39,106,101.27a6,6,0,0,0,8.36.3,5.88,5.88,0,0,0,.26-8.32l-.13-.13L86.62,65.24H64.5s-5.59-.68-7.7-5.59a2.55,2.55,0,0,1,1.42-3.33h0l.33-.11a42.59,42.59,0,0,0,7.69-2.72c3.37-1.73,15.59-5.28,22.67-1.76a15.31,15.31,0,0,0,6.63,1.67l5.82.07"></path><path id="Path_46214" data-name="Path 46214" class="cls-2" d="M98.17,93.44l5.14,5.13A5.89,5.89,0,1,1,95,106.89L81.77,93.67"></path><path id="Path_46215" data-name="Path 46215" class="cls-2" d="M86.49,98.39l5.13,5.14a5.88,5.88,0,1,1-8.32,8.32L73.44,102"></path><path id="Path_46216" data-name="Path 46216" class="cls-2" d="M75.05,103.6l5.13,5.13a5.89,5.89,0,1,1-8.05,8.6c-.09-.09-.19-.18-.28-.28L64,109.22"></path><line id="Line_189" data-name="Line 189" class="cls-2" x1="54.82" y1="51.47" x2="59.33" y2="55.98"></line><path id="Path_46217" data-name="Path 46217" class="cls-2" d="M124.31,76.39S118.55,89.27,112.43,91"></path><path id="Rectangle_7478" data-name="Rectangle 7478" class="cls-2" d="M43.93,78.68h0a5.16,5.16,0,0,1,0,7.29l-3.16,3.16a5.16,5.16,0,0,1-7.29,0h0a5.16,5.16,0,0,1,0-7.29l3.16-3.16A5.16,5.16,0,0,1,43.93,78.68Z"></path><path id="Rectangle_7479" data-name="Rectangle 7479" class="cls-2" d="M51.22,86h0a5.16,5.16,0,0,1,0,7.29l-3.16,3.13a5.16,5.16,0,0,1-7.29,0h0a5.16,5.16,0,0,1,0-7.29l3.16-3.16A5.16,5.16,0,0,1,51.22,86Z"></path><path id="Rectangle_7480" data-name="Rectangle 7480" class="cls-2" d="M58.51,93.26h0a5.16,5.16,0,0,1,0,7.29l-3.16,3.16a5.16,5.16,0,0,1-7.29,0h0a5.16,5.16,0,0,1,0-7.29l3.16-3.16A5.16,5.16,0,0,1,58.51,93.26Z"></path><path id="Rectangle_7481" data-name="Rectangle 7481" class="cls-2" d="M65.8,100.55h0a5.16,5.16,0,0,1,0,7.29L62.64,111a5.16,5.16,0,0,1-7.29,0h0a5.16,5.16,0,0,1,0-7.29l3.16-3.16A5.16,5.16,0,0,1,65.8,100.55Z"></path><line id="Line_190" data-name="Line 190" class="cls-2" x1="35.06" y1="80.26" x2="30.55" y2="75.75"></line></g></g></svg> 