<?xml version="1.0" encoding="UTF-8"?>
<svg xmlns="http://www.w3.org/2000/svg" id="Layer_1" data-name="Layer 1" width="560" height="575" viewBox="0 0 560 575">
  <defs>
    <style>.cls-1{fill:#ad4635;}</style>
  </defs>
  <path class="cls-1" d="M454.1,187.71a6.82,6.82,0,1,1-6.82-6.82,6.82,6.82,0,0,1,6.82,6.82"></path>
  <path class="cls-1" d="M313.7,392.69H287.31a6.82,6.82,0,1,0,0,13.64H313.7a7.37,7.37,0,1,1,0,14.73h-71a35.73,35.73,0,0,1-27.53-12.9l-17-20.42A49.25,49.25,0,0,0,161.59,370V329.82h25a47.15,47.15,0,0,1,32.91,13.29l36.66,35.39a6.66,6.66,0,0,1-9.13,9.7l-28.79-26.38a6.82,6.82,0,0,0-9.21,10.05l28.78,26.38a20.32,20.32,0,0,0,28.63-1.19,20.42,20.42,0,0,0-.82-28.38L229,333.31a60.69,60.69,0,0,0-42.38-17.12H160.37a16.91,16.91,0,0,0-15.65-10.56h-32a6.81,6.81,0,0,0-6.82,6.81v49.72a6.82,6.82,0,1,0,13.63,0v-42.9h25.19A3.24,3.24,0,0,1,148,322.5V377a3.24,3.24,0,0,1-3.24,3.24h-7.06a6.82,6.82,0,0,0,0,13.64h7.06a16.91,16.91,0,0,0,15.55-10.32,35.73,35.73,0,0,1,27.41,12.91l17,20.41a49.31,49.31,0,0,0,38,17.82h71a21,21,0,1,0,0-42"></path>
  <path class="cls-1" d="M356.43,345.48a6.82,6.82,0,0,0-9.63.5l-.08.1a6.79,6.79,0,0,0,.59,9.59,6.79,6.79,0,0,0,9.61-.56l-5.05-4.56,5.06,4.55a6.81,6.81,0,0,0-.5-9.62"></path>
  <path class="cls-1" d="M342.18,360.3a6.83,6.83,0,1,0-5.53,10.85,6.72,6.72,0,0,0,4-1.31l.06,0a6.78,6.78,0,0,0,1.47-9.5"></path>
  <path class="cls-1" d="M325.17,371.7a6.85,6.85,0,1,0-6.27,9.65,6.63,6.63,0,0,0,2.6-.52l.27-.11a6.81,6.81,0,0,0,3.4-9"></path>
  <path class="cls-1" d="M306.12,379.3a6.85,6.85,0,1,0-6.74,8.22,7,7,0,0,0,1.2-.11l.27,0a6.83,6.83,0,0,0,5.27-8.07"></path>
  <path class="cls-1" d="M382.56,273.25l-6.69,1.28,6.69-1.29a6.82,6.82,0,0,0-13.39,2.59l0,.16a6.84,6.84,0,0,0,6.67,5.45,7.3,7.3,0,0,0,1.39-.15,6.8,6.8,0,0,0,5.29-8"></path>
  <path class="cls-1" d="M376.33,288.19a6.82,6.82,0,0,0-7.39,6.19v.17a6.83,6.83,0,0,0,6.28,7.32h.52a6.78,6.78,0,0,0,6.78-6.29l-6.79-.61,6.79.6a6.8,6.8,0,0,0-6.19-7.39"></path>
  <path class="cls-1" d="M367.13,328a6.84,6.84,0,1,0,2.54,9.33l0-.07a6.79,6.79,0,0,0-2.58-9.26"></path>
  <path class="cls-1" d="M373.84,308.56a6.86,6.86,0,1,0,4.51,8.62l0-.12a6.82,6.82,0,0,0-4.55-8.5"></path>
  <path class="cls-1" d="M194.07,307.55a6.82,6.82,0,0,0-13.3,3l0,.2a6.79,6.79,0,0,0,6.61,5.2,6.81,6.81,0,0,0,6.64-8.39"></path>
  <path class="cls-1" d="M195.58,242.6a6.83,6.83,0,0,0-9,3.41l-.07.18a6.82,6.82,0,0,0,3.57,8.95,6.83,6.83,0,0,0,8.95-3.56,6.83,6.83,0,0,0-3.43-9"></path>
  <path class="cls-1" d="M188.07,261.69A6.81,6.81,0,0,0,180,267l0,.16a6.83,6.83,0,0,0,5.4,8,7.27,7.27,0,0,0,1.31.13,6.86,6.86,0,0,0,1.4-13.57"></path>
  <path class="cls-1" d="M206.89,225.51a6.84,6.84,0,0,0-9.51,1.55l5.51,4-5.51-4a6.81,6.81,0,1,0,11,8l.07-.1a6.79,6.79,0,0,0-1.58-9.48"></path>
  <path class="cls-1" d="M221.68,211.25a6.81,6.81,0,0,0-9.62-.51s-.06,0-.06.06a6.82,6.82,0,1,0,9.68.45"></path>
  <path class="cls-1" d="M239.17,200.51a6.82,6.82,0,0,0-9.28-2.62l-.13.08a6.82,6.82,0,1,0,9.41,2.54"></path>
  <path class="cls-1" d="M258.5,193.58a6.79,6.79,0,0,0-8.56-4.4l2,6.52-2-6.52a6.82,6.82,0,0,0,2,13.34,6.73,6.73,0,0,0,2-.31l.15,0a6.84,6.84,0,0,0,4.41-8.59"></path>
  <path class="cls-1" d="M278.87,191.13a6.81,6.81,0,0,0-7.38-6.19h-.08a6.82,6.82,0,0,0,.66,13.6c.21,0,.41,0,.62,0a6.81,6.81,0,0,0,6.18-7.39"></path>
  <path class="cls-1" d="M191.69,288.55a6.82,6.82,0,0,0-13.63.35l6.82-.08-6.82.1a6.83,6.83,0,0,0,6.82,6.72h.1a6.82,6.82,0,0,0,6.71-6.93v-.16"></path>
  <path class="cls-1" d="M287,280.17H273a10.36,10.36,0,0,1-10.35-10.35v-8.17A10.37,10.37,0,0,1,273,251.29h15.55a8.85,8.85,0,0,1,8.84,8.84,6.82,6.82,0,1,0,13.63,0,22.5,22.5,0,0,0-22.47-22.47h-1.72V227.51a6.82,6.82,0,0,0-13.63,0v10.15H273a24,24,0,0,0-24,24v8.17a24,24,0,0,0,24,24h14a10.37,10.37,0,0,1,10.36,10.36v8.16A10.37,10.37,0,0,1,287,322.69H271.47a8.84,8.84,0,0,1-8.84-8.84,6.82,6.82,0,1,0-13.64,0,22.5,22.5,0,0,0,22.48,22.47h1.71v10.15a6.82,6.82,0,1,0,13.63,0V336.32h.2a24,24,0,0,0,24-24v-8.16a24,24,0,0,0-24-24"></path>
  <path class="cls-1" d="M447.29,203.13a6.82,6.82,0,0,0-6.83,6.82v45.56H415.27a3.24,3.24,0,0,1-3.23-3.24v-54.5a3.24,3.24,0,0,1,3.23-3.24h6.57a6.82,6.82,0,0,0,0-13.63h-6.57a16.87,16.87,0,0,0-15.62,10.55,35.75,35.75,0,0,1-27.33-12.91l-17-20.41a49.3,49.3,0,0,0-38-17.82h-71a21,21,0,1,0,0,42h29a6.82,6.82,0,1,0,0-13.64h-29a7.37,7.37,0,0,1,0-14.73h71a35.73,35.73,0,0,1,27.54,12.9l17,20.42A49.3,49.3,0,0,0,398.41,205v40.14h-25a47.17,47.17,0,0,1-32.91-13.29L303.83,196.5a6.66,6.66,0,0,1,9.12-9.71l28.78,26.38a6.81,6.81,0,1,0,9.21-10l-28.78-26.38a20.29,20.29,0,0,0-27.81,29.56L331,241.69a60.7,60.7,0,0,0,42.38,17.12h26.34a16.89,16.89,0,0,0,15.54,10.33h32a6.81,6.81,0,0,0,6.81-6.81V210a6.81,6.81,0,0,0-6.81-6.82"></path>
</svg>
