<?xml version="1.0" encoding="utf-8"?>
<!-- Generator: Adobe Illustrator 21.1.0, SVG Export Plug-In . SVG Version: 6.00 Build 0)  -->
<svg version="1.1" id="Capa_1" xmlns="http://www.w3.org/2000/svg" xmlns:xlink="http://www.w3.org/1999/xlink" x="0px" y="0px"
	 viewBox="0 0 249.1 249.1" style="enable-background:new 0 0 249.1 249.1;" xml:space="preserve">
<style type="text/css">
	.st0{fill:#F3754E;}
	.st1{fill:#FFFFFF;}
</style>
<g>
	<g>
		<path class="st0" d="M188.3,129.4l-10.9-19.9V95.7c0-32.5-26.5-59-59-59s-59,26.5-59,59v10.1c0,12.6,3.8,24.6,10.9,34.9v29
			c0,1.9,1.6,3.5,3.5,3.5c1.9,0,3.5-1.6,3.5-3.5v-30.1c0-0.7-0.2-1.5-0.7-2.1c-6.7-9.3-10.3-20.2-10.3-31.7V95.7
			c0-28.6,23.3-51.9,51.9-51.9c28.6,0,51.9,23.3,51.9,51.9v14.6c0,0.6,0.1,1.2,0.4,1.7l11.4,20.7c0.9,1.6,0.2,2.9-0.1,3.4
			c-0.3,0.5-1.2,1.7-3,1.7c0,0,0,0,0,0l-5.2,0c0,0,0,0,0,0c-0.9,0-1.8,0.4-2.5,1c-0.7,0.7-1,1.6-1,2.5V157c0,8.4-6.8,15.2-15.2,15.2
			h-10.6c-4.8,0-8.7,3.9-8.7,8.7v26.9l-47.8-21.5c-1.8-0.8-3.9,0-4.6,1.8c-0.8,1.8,0,3.9,1.8,4.6l52.7,23.7c0.5,0.2,1,0.3,1.4,0.3
			c0.7,0,1.3-0.2,1.9-0.6c1-0.6,1.6-1.8,1.6-3v-32.3c0-0.9,0.7-1.7,1.7-1.7h10.6c12.3,0,22.2-10,22.2-22.2v-12.2l1.7,0
			c0,0,0,0,0.1,0c3.7,0,7.1-1.9,9-5.1C190.1,136.5,190.1,132.7,188.3,129.4z"/>
	</g>
</g>
<g>
	<g>
		<path class="st0" d="M152.8,83.6L152.8,83.6l-2.4-0.3c-0.2-0.4-0.3-0.8-0.5-1.1l1.5-1.9c2.8-3.5,2.7-8.3-0.2-11.2l-6.2-6.2
			c-2.9-2.9-7.7-2.9-11.2-0.2l-1.9,1.5c-0.4-0.2-0.8-0.3-1.1-0.5l-0.3-2.4c-0.5-4.4-4-7.8-8-7.8h-8.7c-4,0-7.5,3.3-8,7.8l-0.3,2.4
			c-0.4,0.2-0.8,0.3-1.1,0.5l-1.9-1.5c-3.5-2.8-8.3-2.7-11.2,0.2l-6.2,6.2c-2.9,2.9-2.9,7.7-0.2,11.2l1.5,1.9
			c-0.2,0.4-0.3,0.8-0.5,1.1l-2.4,0.3c-4.4,0.5-7.8,4-7.8,8v8.7c0,4,3.3,7.5,7.8,8l2.4,0.3c0.2,0.4,0.3,0.8,0.5,1.1l-1.5,1.9
			c-2.8,3.5-2.7,8.3,0.2,11.2l6.2,6.2c2.9,2.9,7.7,2.9,11.2,0.2l1.9-1.5c0.4,0.2,0.8,0.3,1.1,0.5l0.3,2.4c0.5,4.4,4,7.8,8,7.8h8.7
			c4,0,7.5-3.3,8-7.8l0.3-2.4c0.4-0.2,0.8-0.3,1.1-0.5l1.9,1.5c3.5,2.8,8.3,2.7,11.2-0.2l6.2-6.2c2.9-2.9,2.9-7.7,0.2-11.2l-1.5-1.9
			c0.2-0.4,0.3-0.8,0.5-1.1l2.4-0.3c4.4-0.5,7.8-4,7.8-8v-8.7C160.6,87.6,157.2,84.1,152.8,83.6z M153.5,100.3c0,0.4-0.6,0.9-1.6,1
			l-4.5,0.5c-1.4,0.2-2.5,1.1-2.9,2.4c-0.5,1.5-1.1,2.9-1.8,4.3c-0.6,1.2-0.5,2.7,0.4,3.8l2.8,3.6c0.6,0.8,0.6,1.6,0.4,1.8l-6.2,6.2
			c-0.3,0.2-1.1,0.2-1.8-0.4l-3.6-2.8c-1.1-0.9-2.6-1-3.8-0.4c-1.4,0.7-2.8,1.3-4.3,1.8c-1.3,0.4-2.3,1.6-2.4,2.9l-0.5,4.5
			c-0.1,1-0.7,1.6-1,1.6h-8.7c-0.4,0-0.9-0.6-1-1.6l-0.5-4.5c-0.2-1.4-1.1-2.5-2.4-2.9c-1.5-0.5-2.9-1.1-4.3-1.8
			c-0.5-0.3-1.1-0.4-1.6-0.4c-0.8,0-1.5,0.3-2.2,0.8l-3.6,2.8c-0.8,0.6-1.6,0.6-1.8,0.4l-6.2-6.2c-0.2-0.2-0.2-1.1,0.4-1.8l2.8-3.6
			c0.9-1.1,1-2.6,0.4-3.8c-0.7-1.4-1.3-2.8-1.8-4.3c-0.4-1.3-1.6-2.3-2.9-2.4l-4.5-0.5c-1-0.1-1.6-0.7-1.6-1v-8.7
			c0-0.4,0.6-0.9,1.6-1l4.5-0.5c1.4-0.2,2.5-1.1,2.9-2.4c0.5-1.5,1.1-2.9,1.8-4.3c0.6-1.2,0.5-2.7-0.4-3.8L90.7,76
			c-0.6-0.8-0.6-1.6-0.4-1.8l6.2-6.2c0.2-0.2,1.1-0.2,1.8,0.4l3.6,2.8c1.1,0.9,2.6,1,3.8,0.4c1.4-0.7,2.8-1.3,4.3-1.8
			c1.3-0.4,2.3-1.6,2.4-2.9l0.5-4.5c0.1-1,0.7-1.6,1-1.6h8.7c0.4,0,0.9,0.6,1,1.6l0.5,4.5c0.2,1.4,1.1,2.5,2.4,2.9
			c1.5,0.5,2.9,1.1,4.3,1.8c1.2,0.6,2.7,0.5,3.8-0.4l3.6-2.8c0.8-0.6,1.6-0.6,1.8-0.4l6.2,6.2c0.2,0.2,0.2,1.1-0.4,1.8l-2.8,3.6
			c-0.9,1.1-1,2.6-0.4,3.8c0.7,1.4,1.3,2.8,1.8,4.3c0.4,1.3,1.6,2.3,2.9,2.4l4.5,0.5c1,0.1,1.6,0.7,1.6,1L153.5,100.3L153.5,100.3z"
			/>
	</g>
</g>
<g>
	<g>
		<path class="st0" d="M118.3,78.2c-9.8,0-17.8,8-17.8,17.8s8,17.8,17.8,17.8c9.8,0,17.8-8,17.8-17.8S128.1,78.2,118.3,78.2z
			 M118.3,106.7c-5.9,0-10.8-4.8-10.8-10.8s4.8-10.8,10.8-10.8c5.9,0,10.8,4.8,10.8,10.8C129,101.9,124.2,106.7,118.3,106.7z"/>
	</g>
</g>
<g>
	<g>
		<circle class="st0" cx="74.3" cy="183.5" r="3.5"/>
	</g>
</g>
</svg>
